<mxfile host="Electron" agent="Mozilla/5.0 (Windows NT 10.0; Win64; x64) AppleWebKit/537.36 (KHTML, like Gecko) draw.io/26.0.4 Chrome/128.0.6613.186 Electron/32.2.5 Safari/537.36" version="26.0.4">
  <diagram name="Page-1" id="gt-5jqUx3xDQjYygxkQq">
    <mxGraphModel dx="978" dy="636" grid="1" gridSize="10" guides="1" tooltips="1" connect="1" arrows="1" fold="1" page="1" pageScale="1" pageWidth="850" pageHeight="1100" math="0" shadow="0">
      <root>
        <mxCell id="0" />
        <mxCell id="1" parent="0" />
        <mxCell id="tQcWdCtJiPNUIW1hn_39-102" style="edgeStyle=orthogonalEdgeStyle;rounded=0;orthogonalLoop=1;jettySize=auto;html=1;entryX=0.5;entryY=0;entryDx=0;entryDy=0;" edge="1" parent="1" source="tQcWdCtJiPNUIW1hn_39-99" target="tQcWdCtJiPNUIW1hn_39-101">
          <mxGeometry relative="1" as="geometry" />
        </mxCell>
        <mxCell id="tQcWdCtJiPNUIW1hn_39-99" value="" style="rounded=0;whiteSpace=wrap;html=1;fillColor=none;dashed=1;strokeColor=#666666;fontColor=#333333;" vertex="1" parent="1">
          <mxGeometry x="310" y="520" width="140" height="220" as="geometry" />
        </mxCell>
        <mxCell id="tQcWdCtJiPNUIW1hn_39-95" value="" style="rounded=0;whiteSpace=wrap;html=1;fillColor=none;dashed=1;strokeColor=#b85450;" vertex="1" parent="1">
          <mxGeometry x="220" y="290" width="80" height="60" as="geometry" />
        </mxCell>
        <mxCell id="tQcWdCtJiPNUIW1hn_39-93" style="edgeStyle=orthogonalEdgeStyle;rounded=0;orthogonalLoop=1;jettySize=auto;html=1;exitX=0.5;exitY=1;exitDx=0;exitDy=0;entryX=0.5;entryY=0;entryDx=0;entryDy=0;" edge="1" parent="1" source="tQcWdCtJiPNUIW1hn_39-48" target="tQcWdCtJiPNUIW1hn_39-88">
          <mxGeometry relative="1" as="geometry" />
        </mxCell>
        <mxCell id="tQcWdCtJiPNUIW1hn_39-48" value="POST /veneus" style="rounded=1;whiteSpace=wrap;html=1;arcSize=50;fillColor=#dae8fc;strokeColor=#6c8ebf;" vertex="1" parent="1">
          <mxGeometry x="320" y="80" width="120" height="40" as="geometry" />
        </mxCell>
        <mxCell id="tQcWdCtJiPNUIW1hn_39-82" style="edgeStyle=orthogonalEdgeStyle;rounded=0;orthogonalLoop=1;jettySize=auto;html=1;exitX=0.5;exitY=1;exitDx=0;exitDy=0;entryX=0.5;entryY=0;entryDx=0;entryDy=0;" edge="1" parent="1" source="tQcWdCtJiPNUIW1hn_39-59" target="tQcWdCtJiPNUIW1hn_39-60">
          <mxGeometry relative="1" as="geometry" />
        </mxCell>
        <mxCell id="tQcWdCtJiPNUIW1hn_39-59" value="Validate Venue" style="rhombus;whiteSpace=wrap;html=1;fillColor=#ffe6cc;strokeColor=#d79b00;" vertex="1" parent="1">
          <mxGeometry x="340" y="160" width="80" height="80" as="geometry" />
        </mxCell>
        <mxCell id="tQcWdCtJiPNUIW1hn_39-83" style="edgeStyle=orthogonalEdgeStyle;rounded=0;orthogonalLoop=1;jettySize=auto;html=1;exitX=0.5;exitY=1;exitDx=0;exitDy=0;entryX=0.5;entryY=0;entryDx=0;entryDy=0;" edge="1" parent="1" source="tQcWdCtJiPNUIW1hn_39-60" target="tQcWdCtJiPNUIW1hn_39-71">
          <mxGeometry relative="1" as="geometry" />
        </mxCell>
        <mxCell id="tQcWdCtJiPNUIW1hn_39-60" value="Validate Images" style="rhombus;whiteSpace=wrap;html=1;fillColor=#ffe6cc;strokeColor=#d79b00;" vertex="1" parent="1">
          <mxGeometry x="340" y="280" width="80" height="80" as="geometry" />
        </mxCell>
        <mxCell id="tQcWdCtJiPNUIW1hn_39-63" value="400" style="rounded=0;whiteSpace=wrap;html=1;fillColor=#fad9d5;strokeColor=#ae4132;" vertex="1" parent="1">
          <mxGeometry x="230" y="300" width="60" height="40" as="geometry" />
        </mxCell>
        <mxCell id="tQcWdCtJiPNUIW1hn_39-71" value="Validate Amenities" style="rhombus;whiteSpace=wrap;html=1;fillColor=#ffe6cc;strokeColor=#d79b00;" vertex="1" parent="1">
          <mxGeometry x="340" y="400" width="80" height="80" as="geometry" />
        </mxCell>
        <mxCell id="tQcWdCtJiPNUIW1hn_39-79" style="edgeStyle=orthogonalEdgeStyle;rounded=0;orthogonalLoop=1;jettySize=auto;html=1;exitX=0.5;exitY=1;exitDx=0;exitDy=0;entryX=0.5;entryY=0;entryDx=0;entryDy=0;" edge="1" parent="1" source="tQcWdCtJiPNUIW1hn_39-76" target="tQcWdCtJiPNUIW1hn_39-78">
          <mxGeometry relative="1" as="geometry" />
        </mxCell>
        <mxCell id="tQcWdCtJiPNUIW1hn_39-76" value="Create Venue" style="rounded=0;whiteSpace=wrap;html=1;fillColor=#f5f5f5;fontColor=#333333;strokeColor=#666666;" vertex="1" parent="1">
          <mxGeometry x="330" y="530" width="100" height="40" as="geometry" />
        </mxCell>
        <mxCell id="tQcWdCtJiPNUIW1hn_39-81" style="edgeStyle=orthogonalEdgeStyle;rounded=0;orthogonalLoop=1;jettySize=auto;html=1;exitX=0.5;exitY=1;exitDx=0;exitDy=0;entryX=0.5;entryY=0;entryDx=0;entryDy=0;" edge="1" parent="1" source="tQcWdCtJiPNUIW1hn_39-78" target="tQcWdCtJiPNUIW1hn_39-80">
          <mxGeometry relative="1" as="geometry" />
        </mxCell>
        <mxCell id="tQcWdCtJiPNUIW1hn_39-78" value="Create Amenities" style="rounded=0;whiteSpace=wrap;html=1;fillColor=#f5f5f5;fontColor=#333333;strokeColor=#666666;" vertex="1" parent="1">
          <mxGeometry x="320" y="610" width="120" height="40" as="geometry" />
        </mxCell>
        <mxCell id="tQcWdCtJiPNUIW1hn_39-80" value="Create Images" style="rounded=0;whiteSpace=wrap;html=1;fillColor=#f5f5f5;fontColor=#333333;strokeColor=#666666;" vertex="1" parent="1">
          <mxGeometry x="320" y="690" width="120" height="40" as="geometry" />
        </mxCell>
        <mxCell id="tQcWdCtJiPNUIW1hn_39-98" style="edgeStyle=orthogonalEdgeStyle;rounded=0;orthogonalLoop=1;jettySize=auto;html=1;exitX=0;exitY=0.5;exitDx=0;exitDy=0;entryX=1;entryY=0.5;entryDx=0;entryDy=0;" edge="1" parent="1" source="tQcWdCtJiPNUIW1hn_39-88" target="tQcWdCtJiPNUIW1hn_39-95">
          <mxGeometry relative="1" as="geometry" />
        </mxCell>
        <mxCell id="tQcWdCtJiPNUIW1hn_39-100" style="edgeStyle=orthogonalEdgeStyle;rounded=0;orthogonalLoop=1;jettySize=auto;html=1;exitX=0.5;exitY=1;exitDx=0;exitDy=0;entryX=0.5;entryY=0;entryDx=0;entryDy=0;" edge="1" parent="1" source="tQcWdCtJiPNUIW1hn_39-88" target="tQcWdCtJiPNUIW1hn_39-99">
          <mxGeometry relative="1" as="geometry" />
        </mxCell>
        <mxCell id="tQcWdCtJiPNUIW1hn_39-88" value="" style="rounded=0;whiteSpace=wrap;html=1;fillColor=none;dashed=1;strokeColor=#d79b00;" vertex="1" parent="1">
          <mxGeometry x="330" y="150" width="100" height="340" as="geometry" />
        </mxCell>
        <mxCell id="tQcWdCtJiPNUIW1hn_39-101" value="Response 200" style="rounded=1;whiteSpace=wrap;html=1;arcSize=50;fillColor=#dae8fc;strokeColor=#6c8ebf;" vertex="1" parent="1">
          <mxGeometry x="320" y="770" width="120" height="40" as="geometry" />
        </mxCell>
      </root>
    </mxGraphModel>
  </diagram>
</mxfile>
